<svg id="Layer_1" data-name="Layer 1" xmlns="http://www.w3.org/2000/svg" viewBox="0 0 166.09 14.82"><defs><style>.cls-1{fill:#6A792D;}</style></defs><title>records</title><g id="Boostrap-3-Grid"><g id="_LG_-Large-Desktop-_1200px-or-more_-_LG-or-bigger_" data-name="[LG]-Large-Desktop-(1200px-or-more)-(LG-or-bigger)"><g id="Logo---1-colour"><path id="RECORDS" class="cls-1" d="M31.78,270.43V257a0.53,0.53,0,0,1,.17-0.4,0.68,0.68,0,0,1,.43-0.18H36a5.17,5.17,0,0,1,3.22.93,3.62,3.62,0,0,1,1.22,3.07q0,3.3-3,3.9l3,5.62a0.56,0.56,0,0,1,.08.28,0.77,0.77,0,0,1-.32.59,1,1,0,0,1-.68.27,1,1,0,0,1-.76-0.66l-3-5.86h-2.3v5.88a0.5,0.5,0,0,1-.25.44,1.17,1.17,0,0,1-1.18,0,0.5,0.5,0,0,1-.25-0.44h0Zm1.68-7.28H36q2.76,0,2.76-2.62T36,257.93H33.46v5.22Zm24.74,7.28V257a0.51,0.51,0,0,1,.23-0.44,0.91,0.91,0,0,1,.53-0.16h7.12a0.49,0.49,0,0,1,.43.22,0.9,0.9,0,0,1,.15.52,0.94,0.94,0,0,1-.16.55,0.49,0.49,0,0,1-.42.23h-6.2V263H63a0.5,0.5,0,0,1,.42.21,0.82,0.82,0,0,1,.16.51,0.79,0.79,0,0,1-.15.47,0.5,0.5,0,0,1-.43.21H59.88v5.1h6.2a0.49,0.49,0,0,1,.42.23,0.94,0.94,0,0,1,.16.55,0.9,0.9,0,0,1-.15.52,0.49,0.49,0,0,1-.43.22H59a0.9,0.9,0,0,1-.53-0.16,0.51,0.51,0,0,1-.23-0.44h0Zm25.48-3.64v-6a4.2,4.2,0,0,1,1.19-3.3A4.5,4.5,0,0,1,88,256.41a4.73,4.73,0,0,1,3.14,1,3.12,3.12,0,0,1,1.18,2.49,1,1,0,0,1-.2.73,0.91,0.91,0,0,1-.64.19,0.68,0.68,0,0,1-.84-0.58q-0.12-2.3-2.6-2.3-2.66,0-2.66,2.84v6q0,2.84,2.72,2.84a3.35,3.35,0,0,0,1.3-.22,1.57,1.57,0,0,0,.77-0.64,3,3,0,0,0,.33-0.72,6,6,0,0,0,.14-0.8,0.69,0.69,0,0,1,.84-0.58,0.88,0.88,0,0,1,.64.2,1,1,0,0,1,.2.74,3.18,3.18,0,0,1-1.19,2.53,4.7,4.7,0,0,1-3.15,1,4.47,4.47,0,0,1-3.09-1.06,4.2,4.2,0,0,1-1.19-3.3h0Zm26.18,0v-6a4.24,4.24,0,0,1,1.17-3.31,5.21,5.21,0,0,1,6.27,0,4.22,4.22,0,0,1,1.18,3.31v6a4.22,4.22,0,0,1-1.18,3.31,5.21,5.21,0,0,1-6.27,0,4.24,4.24,0,0,1-1.17-3.31h0Zm1.68,0q0,2.84,2.62,2.84a2.59,2.59,0,0,0,1.95-.71,2.94,2.94,0,0,0,.69-2.13v-6a2.94,2.94,0,0,0-.69-2.13,2.59,2.59,0,0,0-1.95-.71q-2.62,0-2.62,2.84v6Zm25.2,3.64V257a0.53,0.53,0,0,1,.17-0.4,0.68,0.68,0,0,1,.43-0.18H141a5.17,5.17,0,0,1,3.22.93,3.62,3.62,0,0,1,1.22,3.07q0,3.3-3,3.9l3,5.62a0.56,0.56,0,0,1,.08.28,0.77,0.77,0,0,1-.32.59,1,1,0,0,1-.68.27,1,1,0,0,1-.76-0.66l-3-5.86h-2.3v5.88a0.5,0.5,0,0,1-.25.44,1.17,1.17,0,0,1-1.18,0,0.5,0.5,0,0,1-.25-0.44h0Zm1.68-7.28H141q2.76,0,2.76-2.62t-2.76-2.6h-2.58v5.22Zm24.74,7.3V257a0.51,0.51,0,0,1,.21-0.41,0.85,0.85,0,0,1,.55-0.17h3.54a4.55,4.55,0,0,1,3.14,1.05,4.22,4.22,0,0,1,1.18,3.31v5.9a4.22,4.22,0,0,1-1.18,3.31,4.55,4.55,0,0,1-3.14,1H163.9a0.85,0.85,0,0,1-.55-0.17,0.51,0.51,0,0,1-.21-0.41h0Zm1.68-.94h2.62a2.59,2.59,0,0,0,1.95-.71,2.94,2.94,0,0,0,.69-2.13v-5.9a2.94,2.94,0,0,0-.69-2.13,2.59,2.59,0,0,0-1.95-.71h-2.62v11.58Zm24.44-.58a1,1,0,0,1,.23-0.62A0.65,0.65,0,0,1,190,268a0.79,0.79,0,0,1,.46.25q0.28,0.25.58,0.56a2.64,2.64,0,0,0,.94.56,3.93,3.93,0,0,0,1.44.25,3,3,0,0,0,2-.63,2.29,2.29,0,0,0,.74-1.85,2.44,2.44,0,0,0-.68-1.79,4.47,4.47,0,0,0-1.64-1.05q-1-.36-1.93-0.77a4.16,4.16,0,0,1-1.65-1.26,3.4,3.4,0,0,1-.68-2.19,3.88,3.88,0,0,1,.4-1.81,2.78,2.78,0,0,1,1.07-1.16,5.32,5.32,0,0,1,1.39-.57,6.33,6.33,0,0,1,1.54-.18,8,8,0,0,1,2.37.35,1.25,1.25,0,0,1,1.13,1,1.14,1.14,0,0,1-.2.6,0.6,0.6,0,0,1-.52.32,6.65,6.65,0,0,1-.92-0.38,4.46,4.46,0,0,0-1.86-.38,3.49,3.49,0,0,0-2,.5,1.76,1.76,0,0,0-.75,1.58,1.85,1.85,0,0,0,.68,1.49,5.23,5.23,0,0,0,1.65.91q1,0.34,1.93.78a4.07,4.07,0,0,1,1.64,1.41,4.2,4.2,0,0,1,.68,2.47,4,4,0,0,1-1.2,3.14,4.63,4.63,0,0,1-3.18,1.06,5.62,5.62,0,0,1-3-.76,2,2,0,0,1-1.23-1.5h0Z" transform="translate(-31.78 -256.37)"/></g></g></g></svg>