<?xml version="1.0" encoding="UTF-8" standalone="no"?>
<svg width="22px" height="19px" viewBox="0 0 22 19" version="1.1" xmlns="http://www.w3.org/2000/svg" xmlns:xlink="http://www.w3.org/1999/xlink">
    <!-- Generator: Sketch 39.1 (31720) - http://www.bohemiancoding.com/sketch -->
    <title>Fill 3</title>
    <desc>Created with Sketch.</desc>
    <defs></defs>
    <g id="Boostrap-3-Grid" stroke="none" stroke-width="1" fill="none" fill-rule="evenodd">
        <g id="[LG]-Large-Desktop-(1200px-or-more)-(LG-or-bigger)" transform="translate(-579.000000, -471.000000)" fill="#445C81">
            <g id="Group" transform="translate(536.000000, 470.000000)">
                <path d="M64.1108209,1.77540914 C63.2560737,2.28239139 62.3443433,2.67671093 61.3186466,2.84570502 C60.5208825,2.00073458 59.3812196,1.43742096 58.1275903,1.43742096 C55.734298,1.43742096 53.7398878,3.40901864 53.7398878,5.88759857 C53.7398878,6.22558674 53.7968709,6.56357491 53.8538541,6.90156308 C50.2069325,6.732569 47.0158762,4.92996541 44.8505165,2.28239139 C44.4516345,2.95836774 44.280685,3.69067545 44.280685,4.53564588 C44.280685,6.05659265 45.0784491,7.40854534 46.2181121,8.25351577 C45.4773311,8.25351577 44.8505165,8.02819033 44.2237019,7.69020215 L44.2237019,7.74653352 C44.2237019,9.88712527 45.7052637,11.6897289 47.7566571,12.0840484 C47.4147582,12.1967111 47.0158762,12.2530425 46.6169941,12.2530425 C46.3320784,12.2530425 46.0471626,12.2530425 45.81923,12.1967111 C46.3890615,13.9429833 47.9845897,15.2386047 49.9220168,15.294936 C48.4404549,16.4778946 46.560011,17.2102023 44.5086176,17.2102023 C44.1667187,17.2102023 43.8248198,17.2102023 43.4829209,17.153871 C45.420348,18.3931609 47.699674,19.1254687 50.2069325,19.1254687 C58.2415566,19.1254687 62.6862422,12.3657052 62.6862422,6.50724355 L62.6862422,5.94392993 C63.5409894,5.32428495 64.2817704,4.53564588 64.8516019,3.63434408 C64.0538378,3.97233226 63.1990905,4.25398907 62.3443433,4.31032043 C63.0851242,3.69067545 63.768922,2.84570502 64.1108209,1.77540914" id="Fill-3"></path>
            </g>
        </g>
    </g>
</svg>