<?xml version="1.0" encoding="UTF-8" standalone="no"?>
<svg width="22px" height="21px" viewBox="0 0 22 21" version="1.1" xmlns="http://www.w3.org/2000/svg" xmlns:xlink="http://www.w3.org/1999/xlink">
    <!-- Generator: Sketch 39.1 (31720) - http://www.bohemiancoding.com/sketch -->
    <title>Fill 1</title>
    <desc>Created with Sketch.</desc>
    <defs></defs>
    <g id="Boostrap-3-Grid" stroke="none" stroke-width="1" fill="none" fill-rule="evenodd">
        <g id="[LG]-Large-Desktop-(1200px-or-more)-(LG-or-bigger)" transform="translate(-623.000000, -470.000000)" fill="#445C81">
            <g id="Group" transform="translate(536.000000, 470.000000)">
                <path d="M106.283129,18.0823672 C106.283129,18.4203554 105.998214,18.7020122 105.656315,18.7020122 L89.9859488,18.7020122 C89.6440499,18.7020122 89.3591341,18.4203554 89.3591341,18.0823672 L89.3591341,8.39337295 L91.980359,8.39337295 C91.6384601,8.90035521 91.5244938,9.801657 91.5244938,10.3649706 C91.5244938,13.8011837 94.3736512,16.6177518 97.9066065,16.6177518 C101.439562,16.6177518 104.288719,13.8011837 104.288719,10.3649706 C104.288719,9.801657 104.231736,8.90035521 103.775871,8.39337295 L106.397096,8.39337295 L106.397096,18.0823672 L106.283129,18.0823672 Z M97.7926402,6.42177528 C100.014983,6.42177528 101.838444,8.1680475 101.838444,10.3649706 C101.838444,12.5618937 100.014983,14.308166 97.7926402,14.308166 C95.5702974,14.308166 93.8038198,12.5618937 93.8038198,10.3649706 C93.8038198,8.1680475 95.5702974,6.42177528 97.7926402,6.42177528 L97.7926402,6.42177528 Z M102.351292,3.267219 C102.351292,2.92923083 102.636208,2.64757402 102.978107,2.64757402 L104.915534,2.64757402 C105.257433,2.64757402 105.542348,2.92923083 105.542348,3.267219 L105.542348,5.18248531 C105.542348,5.52047348 105.257433,5.80213029 104.915534,5.80213029 L102.978107,5.80213029 C102.636208,5.80213029 102.351292,5.52047348 102.351292,5.18248531 L102.351292,3.267219 Z M105.770281,0 L89.8719825,0 C88.5043869,0 87.3647239,1.07029588 87.3647239,2.42224857 L87.3647239,18.19503 C87.3647239,19.5469826 88.5043869,20.6172785 89.8719825,20.6172785 L105.770281,20.6172785 C107.137877,20.6172785 108.27754,19.5469826 108.27754,18.19503 L108.27754,2.42224857 C108.220556,1.12662724 107.137877,0 105.770281,0 L105.770281,0 Z" id="Fill-1"></path>
            </g>
        </g>
    </g>
</svg>