<?xml version="1.0" encoding="UTF-8" standalone="no"?>
<svg width="21px" height="21px" viewBox="0 0 21 21" version="1.1" xmlns="http://www.w3.org/2000/svg" xmlns:xlink="http://www.w3.org/1999/xlink">
    <!-- Generator: Sketch 39.1 (31720) - http://www.bohemiancoding.com/sketch -->
    <title>Fill 5</title>
    <desc>Created with Sketch.</desc>
    <defs></defs>
    <g id="Boostrap-3-Grid" stroke="none" stroke-width="1" fill="none" fill-rule="evenodd">
        <g id="[LG]-Large-Desktop-(1200px-or-more)-(LG-or-bigger)" transform="translate(-536.000000, -470.000000)" fill="#445C81">
            <g id="Group" transform="translate(536.000000, 470.000000)">
                <path d="M20.9697989,19.4906513 C20.9697989,20.1102963 20.4569506,20.6172785 19.8301359,20.6172785 L14.4737199,20.6172785 L14.4737199,12.6182251 L17.2089111,12.6182251 L17.6077931,9.52000019 L14.4737199,9.52000019 L14.4737199,7.54840252 C14.4737199,6.64710072 14.7016525,6.02745574 16.0122649,6.02745574 L17.6647763,6.02745574 L17.6647763,3.21088764 C17.3798605,3.15455628 16.411147,3.09822491 15.2145008,3.09822491 C12.8212086,3.09822491 11.1686972,4.56284033 11.1686972,7.21041435 L11.1686972,9.52000019 L8.43350608,9.52000019 L8.43350608,12.6182251 L11.1686972,12.6182251 L11.1686972,20.6172785 L1.13966298,20.6172785 C0.512848343,20.6172785 0,20.1102963 0,19.4906513 L0,1.12662724 C0,0.506982259 0.512848343,0 1.13966298,0 L19.7731528,0 C20.3999674,0 20.9128158,0.506982259 20.9128158,1.12662724 L20.9128158,19.4906513 L20.9697989,19.4906513 Z" id="Fill-5"></path>
            </g>
        </g>
    </g>
</svg>